<svg width="390" height="321" viewBox="0 0 390 321" fill="none" xmlns="http://www.w3.org/2000/svg">
<mask id="mask0_105_94" style="mask-type:alpha" maskUnits="userSpaceOnUse" x="0" y="0" width="390" height="321">
<rect width="390" height="321" rx="50" fill="#D7EAFD"/>
</mask>
<g mask="url(#mask0_105_94)">
<rect width="390" height="321" rx="50" fill="#D7EAFD"/>
<path d="M346.707 211.282C352.821 205.403 357.994 198.819 362.226 191.53C366.459 184.241 368.575 176.599 368.575 168.604C368.575 160.609 366.459 154.26 362.226 149.558C357.994 144.855 351.645 142.504 343.18 142.504C334.95 142.504 328.249 146.266 323.076 153.79C318.138 161.315 315.669 169.662 315.669 178.832C315.669 187.768 316.374 195.645 317.785 202.464C313.553 203.64 309.673 204.227 306.146 204.227C296.74 204.227 288.746 201.171 282.162 195.057C275.813 188.708 272.639 180.831 272.639 171.426C272.639 153.085 280.869 138.271 297.328 126.984C313.788 115.463 331.776 109.702 351.293 109.702C370.809 109.702 386.328 114.287 397.85 123.457C409.607 132.393 415.485 145.208 415.485 161.902C415.485 172.013 412.193 182.242 405.609 192.588C399.261 202.934 392.207 211.752 384.447 219.041C376.923 226.095 369.868 234.56 363.285 244.436C356.936 254.077 353.761 263.482 353.761 272.653C353.761 276.885 354.467 281.47 355.878 286.408C349.999 290.876 343.18 293.11 335.421 293.11C327.896 293.11 321.312 290.876 315.669 286.408C310.261 281.705 307.557 275.827 307.557 268.773C307.557 261.484 309.673 254.429 313.906 247.61C318.138 240.791 323.193 234.56 329.072 228.917C334.95 223.038 340.829 217.16 346.707 211.282ZM313.2 332.26C320.254 328.498 327.073 326.617 333.657 326.617C349.411 326.617 357.289 333.906 357.289 348.485C357.289 356.244 354.584 362.828 349.176 368.236C344.003 373.645 337.654 376.349 330.13 376.349C322.841 376.349 317.197 374.35 313.2 370.353C309.438 366.12 307.557 360.359 307.557 353.07C307.557 345.546 309.438 338.609 313.2 332.26Z" fill="white" fill-opacity="0.3"/>
</g>
</svg>
