<svg width="56" height="55" viewBox="0 0 56 55" fill="none" xmlns="http://www.w3.org/2000/svg">
<rect x="23" y="4" width="27" height="49" fill="white"/>
<path d="M47.3072 0H8.18004C3.68102 0 0 3.60379 0 8.00843V46.3187C0 50.7234 3.68102 54.3272 8.18004 54.3272H47.3113C51.8103 54.3272 55.4913 50.7234 55.4913 46.3187V8.00843C55.4872 3.60379 51.8103 0 47.3072 0ZM46.7816 28.9965H40.1967V52.3211H30.3438V28.9965H25.4154V20.9561H30.3438V16.131C30.3438 9.57207 33.1251 5.66997 41.0392 5.66997H47.618V13.7084H43.5035C40.4278 13.7084 40.2233 14.8356 40.2233 16.9318L40.1967 20.9561H47.6508L46.7816 28.9965Z" fill="url(#paint0_linear_156_8)"/>
<defs>
<linearGradient id="paint0_linear_156_8" x1="6.47399" y1="54.3272" x2="54.3963" y2="2.60722" gradientUnits="userSpaceOnUse">
<stop stop-color="#0866FF"/>
<stop offset="1" stop-color="#053D99"/>
</linearGradient>
</defs>
</svg>
