<svg width="22" height="22" viewBox="0 0 22 22" fill="none" xmlns="http://www.w3.org/2000/svg">
<path d="M4.52939 5.70605H3.35293C2.72889 5.70605 2.13042 5.95395 1.68916 6.39521C1.2479 6.83647 1 7.43495 1 8.05898V18.6472C1 19.2712 1.2479 19.8697 1.68916 20.3109C2.13042 20.7522 2.72889 21.0001 3.35293 21.0001H13.9411C14.5651 21.0001 15.1636 20.7522 15.6049 20.3109C16.0461 19.8697 16.294 19.2712 16.294 18.6472V17.4707" stroke="#9C9A9A" stroke-width="2" stroke-linecap="round" stroke-linejoin="round"/>
<path d="M15.1171 3.35305L18.6465 6.88244M20.2759 5.21775C20.7392 4.7544 20.9995 4.12597 20.9995 3.4707C20.9995 2.81543 20.7392 2.187 20.2759 1.72365C19.8125 1.2603 19.1841 1 18.5288 1C17.8736 1 17.2451 1.2603 16.7818 1.72365L6.88184 11.5883V15.1177H10.4112L20.2759 5.21775Z" stroke="#9C9A9A" stroke-width="2" stroke-linecap="round" stroke-linejoin="round"/>
</svg>
