<svg width="57" height="55" viewBox="0 0 57 55" fill="none" xmlns="http://www.w3.org/2000/svg">
<rect x="0.722656" y="6.10352e-05" width="55.4913" height="54.3272" rx="7.39884" fill="url(#paint0_linear_105_107)"/>
<path fill-rule="evenodd" clip-rule="evenodd" d="M21.7663 15.8763C23.7937 14.725 26.0959 14.1189 28.4396 14.1194C30.5052 14.1199 32.5422 14.5916 34.3892 15.4971C36.2361 16.4025 37.8422 17.7169 39.0799 19.3358C40.3176 20.9548 41.153 22.8339 41.5198 24.824C41.8866 26.8141 41.7747 28.8604 41.193 30.8008C40.6112 32.7412 39.5757 34.5222 38.1685 36.0025C36.7612 37.4828 35.0211 38.6218 33.0859 39.329C31.1508 40.0363 29.074 40.2923 27.0202 40.0769C24.9663 39.8615 22.992 39.1805 21.2539 38.088L20.624 37.6926L16.7686 38.7469L17.9269 34.9089L16.9813 33.7407C15.7919 31.7636 15.1574 29.5137 15.1423 27.2192C15.1272 24.9247 15.7319 22.667 16.8951 20.675C18.0584 18.6831 19.7389 17.0275 21.7663 15.8763ZM28.4396 10.8655C19.2613 10.8655 11.8213 18.1494 11.8213 27.1352C11.8172 30.0836 12.6348 32.9772 14.1861 35.5043L14.2409 35.5938L14.2509 35.6052L11.8811 43.4618L20.1039 41.2134C22.6356 42.6528 25.512 43.409 28.4396 43.4049C37.618 43.4049 45.058 36.121 45.058 27.1352C45.058 18.1494 37.618 10.8655 28.4396 10.8655ZM36.1945 29.5081C36.2606 29.5398 36.301 29.5592 36.3085 29.5626L36.3153 29.5658C36.6295 29.714 36.8779 29.8311 37.0231 30.0637C37.2358 30.4087 37.151 31.3572 36.832 32.226C36.4265 33.3274 34.645 34.232 33.834 34.302L33.7144 34.3134L33.6999 34.3148C33.5172 34.3324 33.3087 34.3524 33.0496 34.3524C32.4181 34.3524 31.3064 34.245 28.9599 33.3274C26.5236 32.374 24.1189 30.3306 22.1895 27.5728L22.1214 27.4752C21.6179 26.8261 20.4463 25.1177 20.4463 23.3086C20.4463 21.2976 21.4268 20.1522 22.0084 19.7943C22.5568 19.4575 23.7965 19.2964 24.0242 19.2883C24.1583 19.2824 24.1725 19.2808 24.1867 19.2804C24.1923 19.2802 24.1978 19.2802 24.2103 19.2802C24.6906 19.2802 25.0363 19.5649 25.2988 20.1783C25.317 20.221 25.3611 20.3249 25.4221 20.4688C25.7239 21.1803 26.4401 22.8686 26.487 22.962C26.5795 23.1196 26.6309 23.297 26.6367 23.4786C26.6425 23.6602 26.6025 23.8404 26.5203 24.0033L26.4654 24.1106L26.4622 24.1171C26.3605 24.3178 26.2705 24.4954 26.0716 24.7208L25.8772 24.9485C25.7392 25.1129 25.5963 25.2804 25.4634 25.409C25.4185 25.4529 25.3304 25.5391 25.3221 25.5733C25.3221 25.5733 25.3238 25.601 25.362 25.666C25.6329 26.1151 27.6055 28.7719 30.2046 29.8783C30.3176 29.9271 30.6931 30.0784 30.7148 30.0784C30.7397 30.0784 30.7796 30.0377 30.8095 30.0052C31.0355 29.7546 31.7684 28.9167 32.011 28.5637C32.2237 28.2497 32.4996 28.0902 32.8253 28.0902C33.0195 28.0982 33.2107 28.1395 33.3903 28.2122C33.7699 28.3471 35.7004 29.2716 36.1945 29.5081Z" fill="white"/>
<defs>
<linearGradient id="paint0_linear_105_107" x1="5.80936" y1="-11.3181" x2="41.6813" y2="47.765" gradientUnits="userSpaceOnUse">
<stop stop-color="#19950C"/>
<stop offset="1" stop-color="#25B30B"/>
</linearGradient>
</defs>
</svg>
